<?xml version="1.0" encoding="utf-8"?>
<!-- Generator: Adobe Illustrator 27.9.0, SVG Export Plug-In . SVG Version: 6.00 Build 0)  -->
<svg version="1.1" id="Layer_1" xmlns="http://www.w3.org/2000/svg" xmlns:xlink="http://www.w3.org/1999/xlink" x="0px" y="0px"
	 viewBox="0 0 37.5 33.5" style="enable-background:new 0 0 37.5 33.5;" xml:space="preserve">
<style type="text/css">
	.st0{fill:url(#SVGID_1_);}
	.st1{fill:url(#SVGID_00000137104960543965716170000016862208193150459038_);}
	.st2{fill:url(#SVGID_00000101797942837478216990000003198615376034914961_);}
	.st3{fill:url(#SVGID_00000100351747183643248070000006446473919889735847_);}
</style>
<g>
	
		<linearGradient id="SVGID_1_" gradientUnits="userSpaceOnUse" x1="18.6892" y1="1766.8184" x2="36.1564" y2="1736.6821" gradientTransform="matrix(1 0 0 1 0 -1733.6062)">
		<stop  offset="0" style="stop-color:#EE0278;stop-opacity:0.9"/>
		<stop  offset="1" style="stop-color:#E72429;stop-opacity:0.9"/>
	</linearGradient>
	<path class="st0" d="M36.67,5.44c-0.1-0.23-0.19-0.45-0.31-0.66V4.75c-0.08-0.18-0.18-0.34-0.27-0.5l-0.03-0.06
		c-0.1-0.14-0.19-0.29-0.29-0.45l-0.05-0.06c-0.1-0.14-0.21-0.27-0.31-0.4l-0.05-0.06c-0.11-0.13-0.23-0.26-0.34-0.39l-0.06-0.06
		c-0.11-0.13-0.24-0.24-0.37-0.35l-0.08-0.06c-0.11-0.11-0.24-0.21-0.37-0.32l-0.11-0.1c-0.11-0.1-0.23-0.18-0.35-0.26l-0.21-0.13
		c-0.1-0.06-0.18-0.11-0.27-0.18c-0.1-0.05-0.24-0.14-0.35-0.19L32.72,1.1c-0.21-0.11-0.45-0.19-0.66-0.29
		c0.35,1.38,0.48,2.83,0.39,4.26c-0.18,3.18-1.06,6.27-2.59,9.06c-0.93,1.77-2.06,3.42-3.33,4.97c-2.28,2.72-4.9,5.13-7.78,7.2
		c0,0-2.12,1.7-4.82,3.42c1.54,1.25,3.15,2.43,4.82,3.52c1.67-1.08,3.28-2.25,4.82-3.52c2.23-1.78,4.34-3.74,6.28-5.83
		c1.33-1.45,2.54-3.01,3.63-4.63c2.2-3.31,3.76-7.02,3.76-10.88C37.23,7.36,37.04,6.38,36.67,5.44z"/>
	
		<linearGradient id="SVGID_00000131338561595619036750000007715495795103590798_" gradientUnits="userSpaceOnUse" x1="11.1339" y1="1731.957" x2="23.3248" y2="1760.2643" gradientTransform="matrix(1 0 0 1 0 -1733.6062)">
		<stop  offset="0" style="stop-color:#279200;stop-opacity:0.9"/>
		<stop  offset="1" style="stop-color:#F8EC1D;stop-opacity:0.9"/>
	</linearGradient>
	<path style="fill:url(#SVGID_00000131338561595619036750000007715495795103590798_);" d="M33.18,18.77
		c-1.04-1.61-2.15-3.15-3.36-4.63l0,0C25.44,8.64,17.27,0.25,8.32,0.25c-1,0-1.96,0.19-2.89,0.56C5.2,0.91,4.98,0.99,4.77,1.1
		L4.64,1.17C4.51,1.23,4.4,1.3,4.29,1.36c-0.1,0.05-0.18,0.11-0.27,0.18C3.92,1.6,3.87,1.62,3.8,1.67C3.74,1.72,3.56,1.84,3.45,1.92
		l-0.11,0.1L2.97,2.34L2.9,2.41C2.77,2.52,2.65,2.65,2.53,2.76L2.45,2.82C2.34,2.95,2.23,3.08,2.12,3.21L2.07,3.27
		C1.96,3.4,1.86,3.55,1.75,3.68C1.73,3.69,1.71,3.72,1.7,3.74C1.6,3.88,1.51,4.03,1.41,4.19L1.38,4.24C1.28,4.4,1.18,4.56,1.1,4.74
		v0.03C0.99,4.99,0.89,5.22,0.81,5.43C2.2,5.07,3.64,4.95,5.07,5.04c4.81,0.23,13,2.52,21.2,13.69c0,0,0.1,0.11,0.26,0.32l0,0
		c0.55,0.72,1.94,2.56,3.33,4.79c1.33-1.45,2.54-3.01,3.63-4.63L33.18,18.77z"/>
	
		<linearGradient id="SVGID_00000109741322967204143460000000889807213906903954_" gradientUnits="userSpaceOnUse" x1="-0.0252" y1="1738.6506" x2="22.8269" y2="1763.9424" gradientTransform="matrix(1 0 0 1 0 -1733.6062)">
		<stop  offset="0" style="stop-color:#00A1FE;stop-opacity:0.9"/>
		<stop  offset="1" style="stop-color:#83C5F1;stop-opacity:0.9"/>
	</linearGradient>
	<path style="fill:url(#SVGID_00000109741322967204143460000000889807213906903954_);" d="M18.73,26.27
		c-2.88-2.07-5.48-4.48-7.76-7.2c-1.27-1.53-2.39-3.2-3.33-4.95c-1.53-2.8-2.41-5.88-2.59-9.06C4.96,3.63,5.09,2.2,5.44,0.8
		C5.22,0.9,4.99,0.98,4.78,1.09L4.66,1.15C4.53,1.22,4.41,1.28,4.3,1.35c-0.1,0.05-0.18,0.11-0.27,0.18
		C3.93,1.59,3.88,1.6,3.82,1.65C3.76,1.7,3.58,1.83,3.47,1.91L3.35,2L2.98,2.33L2.92,2.39C2.79,2.5,2.66,2.63,2.55,2.74L2.47,2.81
		C2.36,2.94,2.24,3.07,2.13,3.19L2.08,3.26c-0.11,0.13-0.21,0.27-0.32,0.4C1.75,3.68,1.73,3.71,1.71,3.72
		c-0.1,0.14-0.19,0.29-0.29,0.45L1.39,4.22C1.3,4.38,1.2,4.54,1.12,4.72v0.03C1.01,4.98,0.91,5.2,0.83,5.41
		C0.46,6.33,0.25,7.32,0.25,8.32c0,3.84,1.56,7.57,3.76,10.88c1.09,1.64,2.31,3.18,3.63,4.63c1.94,2.11,4.03,4.07,6.28,5.85
		c1.54,1.25,3.15,2.41,4.82,3.5c1.67-1.08,3.28-2.25,4.82-3.52C20.86,27.98,18.73,26.27,18.73,26.27z"/>
	
		<linearGradient id="SVGID_00000146501827276068306870000009010678085989496468_" gradientUnits="userSpaceOnUse" x1="19.1818" y1="1758.5717" x2="21.5846" y2="1733.1215" gradientTransform="matrix(1 0 0 1 0 -1733.6062)">
		<stop  offset="0" style="stop-color:#F8EC1D;stop-opacity:0.9"/>
		<stop  offset="1" style="stop-color:#E72429;stop-opacity:0.9"/>
	</linearGradient>
	<path style="fill:url(#SVGID_00000146501827276068306870000009010678085989496468_);" d="M36.38,4.78V4.75
		c-0.08-0.18-0.18-0.34-0.27-0.5l-0.03-0.06c-0.1-0.14-0.19-0.29-0.29-0.45l-0.05-0.06c-0.1-0.14-0.21-0.27-0.31-0.4l-0.05-0.06
		c-0.11-0.13-0.22-0.26-0.34-0.39l-0.06-0.06c-0.11-0.13-0.24-0.24-0.37-0.35l-0.08-0.06c-0.11-0.11-0.24-0.21-0.37-0.32l-0.11-0.1
		c-0.11-0.1-0.23-0.18-0.35-0.26l-0.21-0.13c-0.1-0.06-0.18-0.11-0.27-0.18c-0.1-0.05-0.24-0.14-0.35-0.19L32.73,1.1
		c-0.21-0.11-0.45-0.19-0.66-0.29c-0.92-0.37-1.91-0.55-2.89-0.55c-8.95,0-17.12,8.39-21.5,13.87l0,0
		c-1.21,1.48-2.31,3.04-3.36,4.63l-0.29,0.45c1.09,1.64,2.3,3.2,3.63,4.66c1.38-2.19,2.78-4.05,3.34-4.76l0,0
		c0.16-0.21,0.26-0.32,0.26-0.32c8.2-11.19,16.39-13.5,21.2-13.71c1.43-0.1,2.86,0.03,4.26,0.39C36.59,5.22,36.48,4.99,36.38,4.78z"
		/>
</g>
</svg>
